<?xml version="1.0" encoding="utf-8"?>
<!-- Generator: Adobe Illustrator 24.0.2, SVG Export Plug-In . SVG Version: 6.00 Build 0)  -->
<svg version="1.1" id="Layer_1" xmlns="http://www.w3.org/2000/svg" xmlns:xlink="http://www.w3.org/1999/xlink" x="0px" y="0px"
	 viewBox="0 0 160 160" style="enable-background:new 0 0 160 160;" xml:space="preserve">
<style type="text/css">
	.st0{fill:#0A0082;}
</style>
<path class="st0" d="M117.4,48.4c0,2.8-2,6.2-5.6,6.2H87.4v65.6c0,3.6-3.6,5.6-7.4,5.6c-3.4,0-7.2-2-7.2-5.6V54.6H48.4
	c-3.6,0-5.6-3.4-5.6-6.2c0-3.2,2-6.2,5.6-6.2h63.4C115.4,42.2,117.4,45.2,117.4,48.4z"/>
<path class="st0" d="M79.8,0C35.6,0,0,35.8,0,80.2C0,124.4,35.6,160,79.8,160c44.4,0,80.2-35.6,80.2-79.8C160,35.8,124.2,0,79.8,0z
	 M79.8,148.2c-37.6,0-68-30.4-68-68c0-37.8,30.4-68.4,68-68.4c37.8,0,68.4,30.6,68.4,68.4C148.2,117.8,117.6,148.2,79.8,148.2z"/>
</svg>
